<svg xmlns="http://www.w3.org/2000/svg" width="180" height="180" viewBox="0 0 500 300">
  <rect width="180" height="180" fill="#3b82f6" rx="36" ry="36"/>
  <g fill="white" transform="translate(30, 40) scale(0.24, 0.24)" opacity="0.95">
    <g transform="translate(-0.493969 0.630019) scale(0.717479 0.730162) translate(0.493969 -0.630019) translate(-15.7143 -14.2857) matrix(0.1 0 0 -0.1 -144.286 871.143)">
      <path d="m4987,8526c-82,-34 -132,-71 -173,-128c-76,-102 -98,-219 -69,-354l17,-81l-32,-72c-17,-40 -124,-260 -237,-490c-113,-229 -268,-544 -345,-701c-135,-276 -174,-340 -208,-340c-28,0 -116,-49 -154,-86c-20,-19 -51,-63 -69,-97c-30,-58 -32,-68 -32,-167c0,-92 3,-111 25,-153l24,-48l-249,-497l-250,-497l-47,-11c-105,-26 -209,-119 -249,-222c-29,-77 -36,-176 -16,-225l16,-37l93,-1c330,-2 634,4 649,12c24,12 32,43 31,111c-2,79 -32,151 -97,232c-37,47 -55,79 -55,97c0,39 402,842 432,863c16,12 46,16 109,16l86,0l244,-245c185,-187 245,-253 247,-274c2,-20 -47,-121 -187,-380c-104,-195 -193,-367 -197,-383c-4,-21 -2,-33 7,-39c8,-5 64,-9 125,-9c92,0 115,3 132,18c12,9 72,116 135,237c63,121 189,360 279,530c91,171 209,393 263,495c54,102 109,202 121,222c45,70 55,73 369,76c297,4 327,1 362,-26c13,-9 69,-115 126,-237c58,-121 135,-283 172,-360c91,-188 224,-473 237,-507c9,-25 5,-33 -36,-80c-26,-29 -56,-77 -67,-107c-41,-112 -34,-241 14,-257c26,-9 709,-8 736,1c31,9 44,58 39,139c-6,94 -42,171 -112,242c-51,50 -146,104 -185,104c-23,0 -63,74 -201,370c-40,85 -143,304 -230,485c-238,499 -416,874 -538,1135c-150,321 -482,1021 -520,1096c-27,54 -30,66 -21,95c51,175 12,339 -109,450c-82,75 -146,101 -257,106c-78,3 -98,0 -148,-21zm223,-815c17,-12 67,-107 150,-283c198,-419 260,-554 260,-567c0,-6 -38,-80 -84,-164c-46,-84 -127,-231 -179,-327c-69,-128 -103,-181 -127,-197c-33,-23 -35,-23 -416,-23c-220,0 -393,4 -408,10c-34,12 -87,106 -80,140c6,25 288,604 554,1135l145,290l50,6c66,9 104,3 135,-20zm568,-1190c16,-10 162,-309 162,-331c0,-35 -21,-40 -179,-40c-86,0 -162,4 -170,9c-29,19 -14,68 59,202c92,169 100,178 128,160zm-743,-629c35,-7 40,-11 38,-33c-1,-14 -55,-124 -121,-245c-89,-163 -125,-219 -139,-219c-25,0 -413,395 -413,422c0,11 5,34 11,52l11,31l286,-1c158,0 305,-3 327,-7z"/>
    </g>
  </g>
</svg>